<svg width="50" height="50" viewBox="0 0 50 50" fill="none" xmlns="http://www.w3.org/2000/svg">
<rect width="50" height="50" rx="5" fill="#19102C"/>
<path d="M25 9C16.1774 9 9 16.1774 9 25C9 33.8226 16.1774 41 25 41C33.8226 41 41 33.8226 41 25C41 16.1774 33.8226 9 25 9ZM12.0968 25C12.0968 17.8851 17.8851 12.0968 25 12.0968C28.0006 12.0968 30.7583 13.135 32.9523 14.8593L14.8593 32.9522C13.135 30.7582 12.0968 28.0006 12.0968 25ZM25 37.9032C21.9994 37.9032 19.2417 36.865 17.0477 35.1407L35.1407 17.0477C36.865 19.2417 37.9032 21.9994 37.9032 25C37.9032 32.1149 32.1149 37.9032 25 37.9032Z" fill="#C9B9EA"/>
</svg>
