<svg width="303" height="60" viewBox="0 0 303 60" fill="none" xmlns="http://www.w3.org/2000/svg">
<path d="M38.8125 42.4688C36.7292 44.2396 34.4062 45.6042 31.8438 46.5625C29.2812 47.5 26.6146 47.9688 23.8438 47.9688C21.7188 47.9688 19.6667 47.6875 17.6875 47.125C15.7292 46.5833 13.8958 45.8125 12.1875 44.8125C10.4792 43.7917 8.91667 42.5833 7.5 41.1875C6.08333 39.7708 4.875 38.2083 3.875 36.5C2.875 34.7708 2.09375 32.9167 1.53125 30.9375C0.989583 28.9583 0.71875 26.9062 0.71875 24.7812C0.71875 22.6562 0.989583 20.6146 1.53125 18.6562C2.09375 16.6979 2.875 14.8646 3.875 13.1562C4.875 11.4271 6.08333 9.86458 7.5 8.46875C8.91667 7.05208 10.4792 5.84375 12.1875 4.84375C13.8958 3.84375 15.7292 3.07292 17.6875 2.53125C19.6667 1.96875 21.7188 1.6875 23.8438 1.6875C26.6146 1.6875 29.2812 2.16667 31.8438 3.125C34.4062 4.0625 36.7292 5.41667 38.8125 7.1875L34.125 15C32.7708 13.625 31.2083 12.5521 29.4375 11.7812C27.6667 10.9896 25.8021 10.5938 23.8438 10.5938C21.8854 10.5938 20.0417 10.9688 18.3125 11.7188C16.6042 12.4688 15.1042 13.4896 13.8125 14.7812C12.5208 16.0521 11.5 17.5521 10.75 19.2812C10 20.9896 9.625 22.8229 9.625 24.7812C9.625 26.7604 10 28.6146 10.75 30.3438C11.5 32.0729 12.5208 33.5833 13.8125 34.875C15.1042 36.1667 16.6042 37.1875 18.3125 37.9375C20.0417 38.6875 21.8854 39.0625 23.8438 39.0625C24.9688 39.0625 26.0625 38.9271 27.125 38.6562C28.1875 38.3854 29.1979 38.0104 30.1562 37.5312V24.7812H38.8125V42.4688ZM53.0312 47H44.5V13.5312H46.5625L49.375 17.5C50.75 16.25 52.3125 15.2917 54.0625 14.625C55.8125 13.9375 57.625 13.5938 59.5 13.5938H67.0312V22.0938H59.5C58.6042 22.0938 57.7604 22.2604 56.9688 22.5938C56.1771 22.9271 55.4896 23.3854 54.9062 23.9688C54.3229 24.5521 53.8646 25.2396 53.5312 26.0312C53.1979 26.8229 53.0312 27.6667 53.0312 28.5625V47ZM102.781 47H100.719L97.4062 42.4062C96.5938 43.1354 95.7292 43.8229 94.8125 44.4688C93.9167 45.0938 92.9688 45.6458 91.9688 46.125C90.9688 46.5833 89.9375 46.9479 88.875 47.2188C87.8333 47.4896 86.7708 47.625 85.6875 47.625C83.3333 47.625 81.1146 47.2292 79.0312 46.4375C76.9688 45.6458 75.1562 44.5 73.5938 43C72.0521 41.4792 70.8333 39.625 69.9375 37.4375C69.0417 35.25 68.5938 32.7604 68.5938 29.9688C68.5938 27.3646 69.0417 24.9792 69.9375 22.8125C70.8333 20.625 72.0521 18.75 73.5938 17.1875C75.1562 15.625 76.9688 14.4167 79.0312 13.5625C81.1146 12.6875 83.3333 12.25 85.6875 12.25C86.7708 12.25 87.8438 12.3854 88.9062 12.6562C89.9688 12.9271 91 13.3021 92 13.7812C93 14.2604 93.9479 14.8229 94.8438 15.4688C95.7604 16.1146 96.6146 16.8125 97.4062 17.5625L100.719 13.5938H102.781V47ZM94.1875 29.9688C94.1875 28.8021 93.9583 27.6771 93.5 26.5938C93.0625 25.4896 92.4583 24.5208 91.6875 23.6875C90.9167 22.8333 90.0104 22.1562 88.9688 21.6562C87.9479 21.1354 86.8542 20.875 85.6875 20.875C84.5208 20.875 83.4167 21.0729 82.375 21.4688C81.3542 21.8646 80.4583 22.4479 79.6875 23.2188C78.9375 23.9896 78.3438 24.9479 77.9062 26.0938C77.4688 27.2188 77.25 28.5104 77.25 29.9688C77.25 31.4271 77.4688 32.7292 77.9062 33.875C78.3438 35 78.9375 35.9479 79.6875 36.7188C80.4583 37.4896 81.3542 38.0729 82.375 38.4688C83.4167 38.8646 84.5208 39.0625 85.6875 39.0625C86.8542 39.0625 87.9479 38.8125 88.9688 38.3125C90.0104 37.7917 90.9167 37.1146 91.6875 36.2812C92.4583 35.4271 93.0625 34.4583 93.5 33.375C93.9583 32.2708 94.1875 31.1354 94.1875 29.9688ZM117.906 59.75H109.312V13.5312H111.375L114.781 17.5625C115.552 16.8333 116.396 16.1458 117.312 15.5C118.229 14.8542 119.177 14.3021 120.156 13.8438C121.156 13.3646 122.188 12.9896 123.25 12.7188C124.312 12.4479 125.385 12.3125 126.469 12.3125C128.823 12.3125 131.031 12.7396 133.094 13.5938C135.177 14.4271 136.99 15.6146 138.531 17.1562C140.094 18.6979 141.323 20.5625 142.219 22.75C143.115 24.9167 143.562 27.3229 143.562 29.9688C143.562 32.7188 143.115 35.1979 142.219 37.4062C141.323 39.5938 140.094 41.4583 138.531 43C136.99 44.5208 135.177 45.6875 133.094 46.5C131.031 47.3125 128.823 47.7188 126.469 47.7188C125.719 47.7188 124.969 47.6354 124.219 47.4688C123.49 47.3021 122.76 47.0833 122.031 46.8125C121.323 46.5208 120.615 46.1979 119.906 45.8438C119.219 45.4896 118.552 45.125 117.906 44.75V59.75ZM135 29.9688C135 28.5521 134.771 27.2812 134.312 26.1562C133.875 25.0312 133.271 24.0833 132.5 23.3125C131.729 22.5208 130.823 21.9167 129.781 21.5C128.74 21.0833 127.635 20.875 126.469 20.875C125.302 20.875 124.198 21.0833 123.156 21.5C122.135 21.9167 121.24 22.5208 120.469 23.3125C119.698 24.0833 119.083 25.0312 118.625 26.1562C118.188 27.2812 117.969 28.5521 117.969 29.9688C117.969 31.3229 118.188 32.5625 118.625 33.6875C119.083 34.8125 119.698 35.7708 120.469 36.5625C121.24 37.3542 122.135 37.9688 123.156 38.4062C124.198 38.8438 125.302 39.0625 126.469 39.0625C127.635 39.0625 128.74 38.8438 129.781 38.4062C130.823 37.9688 131.729 37.3542 132.5 36.5625C133.271 35.7708 133.875 34.8125 134.312 33.6875C134.771 32.5625 135 31.3229 135 29.9688ZM161.625 38.8125C161.958 38.9167 162.292 38.9896 162.625 39.0312C162.958 39.0521 163.292 39.0625 163.625 39.0625C164.458 39.0625 165.26 38.9479 166.031 38.7188C166.802 38.4896 167.521 38.1667 168.188 37.75C168.875 37.3125 169.479 36.7917 170 36.1875C170.542 35.5625 170.979 34.875 171.312 34.125L177.562 40.4062C176.771 41.5312 175.854 42.5417 174.812 43.4375C173.792 44.3333 172.677 45.0938 171.469 45.7188C170.281 46.3438 169.021 46.8125 167.688 47.125C166.375 47.4583 165.021 47.625 163.625 47.625C161.271 47.625 159.052 47.1875 156.969 46.3125C154.906 45.4375 153.094 44.2188 151.531 42.6562C149.99 41.0938 148.771 39.2396 147.875 37.0938C146.979 34.9271 146.531 32.5521 146.531 29.9688C146.531 27.3229 146.979 24.9062 147.875 22.7188C148.771 20.5312 149.99 18.6667 151.531 17.125C153.094 15.5833 154.906 14.3854 156.969 13.5312C159.052 12.6771 161.271 12.25 163.625 12.25C165.021 12.25 166.385 12.4167 167.719 12.75C169.052 13.0833 170.312 13.5625 171.5 14.1875C172.708 14.8125 173.833 15.5833 174.875 16.5C175.917 17.3958 176.833 18.4062 177.625 19.5312L161.625 38.8125ZM166 21.2188C165.604 21.0729 165.208 20.9792 164.812 20.9375C164.438 20.8958 164.042 20.875 163.625 20.875C162.458 20.875 161.354 21.0938 160.312 21.5312C159.292 21.9479 158.396 22.5521 157.625 23.3438C156.875 24.1354 156.281 25.0938 155.844 26.2188C155.406 27.3229 155.188 28.5729 155.188 29.9688C155.188 30.2812 155.198 30.6354 155.219 31.0312C155.26 31.4271 155.312 31.8333 155.375 32.25C155.458 32.6458 155.552 33.0312 155.656 33.4062C155.76 33.7812 155.896 34.1146 156.062 34.4062L166 21.2188ZM236.625 33.5625C236.625 35.4167 236.271 37.1562 235.562 38.7812C234.854 40.4062 233.885 41.8333 232.656 43.0625C231.448 44.2708 230.031 45.2292 228.406 45.9375C226.781 46.6458 225.042 47 223.188 47H200.781V2.1875H223.188C225.042 2.1875 226.781 2.54167 228.406 3.25C230.031 3.95833 231.448 4.92708 232.656 6.15625C233.885 7.36458 234.854 8.78125 235.562 10.4062C236.271 12.0312 236.625 13.7708 236.625 15.625C236.625 16.4583 236.51 17.3125 236.281 18.1875C236.052 19.0625 235.729 19.9062 235.312 20.7188C234.896 21.5312 234.396 22.2708 233.812 22.9375C233.229 23.6042 232.583 24.1562 231.875 24.5938C232.604 24.9896 233.26 25.5312 233.844 26.2188C234.427 26.8854 234.927 27.625 235.344 28.4375C235.76 29.25 236.073 30.1042 236.281 31C236.51 31.875 236.625 32.7292 236.625 33.5625ZM209.75 38.0312H223.188C223.812 38.0312 224.396 37.9167 224.938 37.6875C225.479 37.4583 225.948 37.1458 226.344 36.75C226.76 36.3333 227.083 35.8542 227.312 35.3125C227.542 34.7708 227.656 34.1875 227.656 33.5625C227.656 32.9375 227.542 32.3542 227.312 31.8125C227.083 31.2708 226.76 30.8021 226.344 30.4062C225.948 29.9896 225.479 29.6667 224.938 29.4375C224.396 29.2083 223.812 29.0938 223.188 29.0938H209.75V38.0312ZM209.75 20.125H223.188C223.812 20.125 224.396 20.0104 224.938 19.7812C225.479 19.5521 225.948 19.2396 226.344 18.8438C226.76 18.4271 227.083 17.9479 227.312 17.4062C227.542 16.8438 227.656 16.25 227.656 15.625C227.656 15 227.542 14.4167 227.312 13.875C227.083 13.3333 226.76 12.8646 226.344 12.4688C225.948 12.0521 225.479 11.7292 224.938 11.5C224.396 11.2708 223.812 11.1562 223.188 11.1562H209.75V20.125ZM274.844 29.9688C274.844 32.4688 274.396 34.8021 273.5 36.9688C272.604 39.1146 271.385 40.9792 269.844 42.5625C268.302 44.125 266.49 45.3646 264.406 46.2812C262.344 47.1771 260.125 47.625 257.75 47.625C255.396 47.625 253.177 47.1771 251.094 46.2812C249.031 45.3646 247.219 44.125 245.656 42.5625C244.115 40.9792 242.896 39.1146 242 36.9688C241.104 34.8021 240.656 32.4688 240.656 29.9688C240.656 27.4271 241.104 25.0729 242 22.9062C242.896 20.7396 244.115 18.875 245.656 17.3125C247.219 15.7292 249.031 14.4896 251.094 13.5938C253.177 12.6979 255.396 12.25 257.75 12.25C260.125 12.25 262.344 12.6771 264.406 13.5312C266.49 14.3646 268.302 15.5625 269.844 17.125C271.385 18.6667 272.604 20.5312 273.5 22.7188C274.396 24.8854 274.844 27.3021 274.844 29.9688ZM266.25 29.9688C266.25 28.5938 266.021 27.3542 265.562 26.25C265.125 25.125 264.521 24.1667 263.75 23.375C262.979 22.5625 262.073 21.9479 261.031 21.5312C260.01 21.0938 258.917 20.875 257.75 20.875C256.583 20.875 255.479 21.0938 254.438 21.5312C253.417 21.9479 252.521 22.5625 251.75 23.375C251 24.1667 250.406 25.125 249.969 26.25C249.531 27.3542 249.312 28.5938 249.312 29.9688C249.312 31.2604 249.531 32.4583 249.969 33.5625C250.406 34.6667 251 35.625 251.75 36.4375C252.521 37.25 253.417 37.8958 254.438 38.375C255.479 38.8333 256.583 39.0625 257.75 39.0625C258.917 39.0625 260.01 38.8438 261.031 38.4062C262.073 37.9688 262.979 37.3542 263.75 36.5625C264.521 35.7708 265.125 34.8125 265.562 33.6875C266.021 32.5625 266.25 31.3229 266.25 29.9688ZM296.094 47C294.031 47 292.094 46.6146 290.281 45.8438C288.469 45.0521 286.875 43.9792 285.5 42.625C284.146 41.25 283.073 39.6562 282.281 37.8438C281.51 36.0312 281.125 34.0938 281.125 32.0312V22.0938H276.969V13.5938H281.125V0.21875H289.625V13.5938H302.562V22.0938H289.625V32.0312C289.625 32.9271 289.792 33.7708 290.125 34.5625C290.458 35.3333 290.917 36.0104 291.5 36.5938C292.083 37.1771 292.771 37.6458 293.562 38C294.354 38.3333 295.198 38.5 296.094 38.5H302.562V47H296.094Z" fill="url(#paint0_linear_45_40)"/>
<defs>
<linearGradient id="paint0_linear_45_40" x1="-1" y1="24" x2="311.5" y2="24" gradientUnits="userSpaceOnUse">
<stop stop-color="#5828BE"/>
<stop offset="1" stop-color="#AA6BE9"/>
</linearGradient>
</defs>
</svg>
