<svg width="373" height="432" viewBox="0 0 373 432" fill="none" xmlns="http://www.w3.org/2000/svg">
<ellipse cx="201" cy="262" rx="148" ry="144" fill="url(#paint0_linear_33_464)"/>
<path d="M106.12 231L64 226.64L46.16 186.15L32.3 189.76C32.3 189.76 42.54 232.55 54 239.18C65.46 245.81 104.61 247 104.61 247L106.12 231Z" fill="#955EBE"/>
<path d="M128.512 251.594C135.365 243.883 134.67 232.076 126.959 225.222C119.248 218.369 107.44 219.064 100.587 226.775C93.7334 234.486 94.4287 246.294 102.14 253.147C109.851 260.001 121.658 259.305 128.512 251.594Z" fill="#263238"/>
<path d="M114.55 257.88C110.221 257.88 106.027 256.379 102.681 253.633C99.3345 250.887 97.0441 247.066 96.1996 242.82C95.3551 238.575 96.0089 234.168 98.0494 230.35C100.09 226.533 103.391 223.541 107.39 221.884C111.389 220.228 115.839 220.009 119.981 221.266C124.124 222.522 127.702 225.176 130.107 228.775C132.512 232.375 133.594 236.696 133.17 241.004C132.746 245.312 130.841 249.339 127.78 252.4C126.047 254.143 123.985 255.524 121.714 256.465C119.443 257.406 117.008 257.887 114.55 257.88V257.88ZM114.55 220.52C110.233 220.516 106.048 222.008 102.708 224.743C99.3681 227.479 97.0799 231.287 96.2332 235.52C95.3866 239.754 96.0339 244.149 98.0649 247.959C100.096 251.768 103.385 254.756 107.372 256.412C111.358 258.068 115.796 258.291 119.928 257.042C124.061 255.794 127.632 253.151 130.035 249.564C132.437 245.977 133.521 241.668 133.103 237.371C132.685 233.075 130.789 229.056 127.74 226C126.013 224.26 123.958 222.88 121.694 221.939C119.43 220.998 117.002 220.516 114.55 220.52V220.52Z" fill="#263238"/>
<path d="M60.2243 242.379C67.7481 240.572 72.383 233.009 70.5767 225.485C68.7704 217.962 61.2069 213.327 53.6832 215.133C46.1595 216.939 41.5246 224.503 43.3309 232.026C45.1372 239.55 52.7006 244.185 60.2243 242.379Z" fill="#263238"/>
<path d="M46.315 189.424C50.7865 184.952 50.7865 177.702 46.315 173.231C41.8435 168.759 34.5938 168.759 30.1223 173.231C25.6507 177.702 25.6507 184.952 30.1222 189.424C34.5938 193.895 41.8435 193.895 46.315 189.424Z" fill="#263238"/>
<path d="M56.0651 175.131L46.6371 183.092L43.237 179.066L52.665 171.104C53.1614 170.685 53.8041 170.48 54.4516 170.535C55.099 170.59 55.6983 170.899 56.1176 171.396L56.3498 171.671C56.559 171.916 56.7175 172.201 56.8164 172.508C56.9153 172.815 56.9526 173.138 56.9262 173.46C56.8997 173.781 56.8101 174.094 56.6623 174.381C56.5145 174.668 56.3116 174.923 56.0651 175.131V175.131Z" fill="#263238"/>
<path d="M44.0901 160.55V172.55C44.0901 172.643 44.0532 172.732 43.9876 172.797C43.9219 172.863 43.8329 172.9 43.7401 172.9H39.1801C39.0873 172.9 38.9982 172.863 38.9326 172.797C38.867 172.732 38.8301 172.643 38.8301 172.55V160.55C38.8301 159.9 39.0882 159.277 39.5477 158.818C40.0071 158.358 40.6303 158.1 41.2801 158.1H41.6401C42.2899 158.1 42.913 158.358 43.3725 158.818C43.832 159.277 44.0901 159.9 44.0901 160.55V160.55Z" fill="#263238"/>
<path d="M35.5988 160.595L38.2186 172.306C38.2389 172.397 38.2223 172.491 38.1726 172.57C38.1229 172.648 38.044 172.704 37.9534 172.724L33.5034 173.719C33.4129 173.74 33.3179 173.723 33.2395 173.673C33.1612 173.624 33.1057 173.545 33.0855 173.454L30.4657 161.744C30.3239 161.11 30.4397 160.445 30.7878 159.896C31.1359 159.348 31.6876 158.96 32.3217 158.818L32.6731 158.739C33.3072 158.598 33.9717 158.713 34.5203 159.061C35.069 159.41 35.457 159.961 35.5988 160.595V160.595Z" fill="#263238"/>
<path d="M26.4645 163.53L32.4645 173.922C32.5109 174.003 32.5235 174.098 32.4995 174.188C32.4754 174.278 32.4168 174.354 32.3364 174.401L28.3873 176.681C28.3069 176.727 28.2114 176.739 28.1217 176.715C28.0321 176.691 27.9556 176.633 27.9092 176.552L21.9092 166.16C21.5843 165.597 21.4963 164.929 21.6644 164.301C21.8326 163.673 22.2432 163.138 22.806 162.813L23.1177 162.633C23.6805 162.308 24.3492 162.22 24.9768 162.389C25.6045 162.557 26.1396 162.967 26.4645 163.53V163.53Z" fill="#263238"/>
<path d="M289.178 335.89L301.786 330.528L265.407 244.993L252.8 250.355L289.178 335.89Z" fill="#955EBE"/>
<path d="M267.214 253.167C273.883 245.295 272.908 233.508 265.036 226.839C257.164 220.17 245.377 221.146 238.708 229.017C232.04 236.889 233.015 248.676 240.887 255.345C248.758 262.014 260.546 261.038 267.214 253.167Z" fill="#263238"/>
<path d="M253 259.84C250.069 259.841 247.179 259.155 244.562 257.835C241.945 256.516 239.675 254.601 237.934 252.243C236.192 249.886 235.029 247.153 234.536 244.264C234.044 241.375 234.237 238.411 235.1 235.61C236.122 232.306 238.041 229.351 240.643 227.073C243.244 224.794 246.427 223.282 249.836 222.703C253.246 222.125 256.749 222.504 259.956 223.797C263.163 225.09 265.949 227.247 268.004 230.029C270.059 232.81 271.302 236.107 271.596 239.553C271.889 242.998 271.222 246.458 269.667 249.547C268.112 252.636 265.731 255.234 262.789 257.051C259.847 258.868 256.458 259.833 253 259.84V259.84ZM253 222.46C249.547 222.464 246.164 223.425 243.225 225.237C240.286 227.049 237.908 229.64 236.355 232.724C234.801 235.807 234.133 239.26 234.426 242.7C234.718 246.14 235.959 249.432 238.011 252.208C240.062 254.985 242.844 257.138 246.046 258.428C249.248 259.718 252.746 260.095 256.149 259.516C259.553 258.936 262.729 257.424 265.324 255.148C267.919 252.871 269.832 249.919 270.85 246.62V246.62C272.302 241.893 271.82 236.782 269.508 232.41C267.197 228.038 263.245 224.761 258.52 223.3C256.713 222.74 254.831 222.457 252.94 222.46H253Z" fill="#263238"/>
<path d="M290.784 296.944C292.855 289.489 288.491 281.766 281.036 279.694C273.581 277.622 265.858 281.986 263.787 289.441C261.715 296.896 266.079 304.619 273.534 306.691C280.989 308.763 288.712 304.399 290.784 296.944Z" fill="#263238"/>
<path d="M298.41 348.25C304.734 348.25 309.86 343.124 309.86 336.8C309.86 330.476 304.734 325.35 298.41 325.35C292.086 325.35 286.96 330.476 286.96 336.8C286.96 343.124 292.086 348.25 298.41 348.25Z" fill="#263238"/>
<path d="M283.434 348.331L289.846 337.811L294.346 340.553L287.934 351.074C287.596 351.628 287.051 352.026 286.42 352.179C285.789 352.333 285.122 352.229 284.567 351.891L284.26 351.703C283.984 351.537 283.743 351.317 283.552 351.057C283.361 350.797 283.223 350.502 283.147 350.189C283.07 349.875 283.056 349.55 283.105 349.231C283.154 348.912 283.266 348.606 283.434 348.331V348.331Z" fill="#263238"/>
<path d="M299.398 358.365L295.598 346.982C295.569 346.894 295.575 346.798 295.617 346.715C295.658 346.632 295.731 346.569 295.819 346.539L300.145 345.095C300.233 345.066 300.329 345.073 300.412 345.114C300.495 345.156 300.558 345.228 300.587 345.317L304.387 356.699C304.485 357.005 304.522 357.328 304.495 357.649C304.469 357.97 304.379 358.282 304.232 358.568C304.085 358.854 303.883 359.108 303.637 359.316C303.392 359.524 303.107 359.682 302.801 359.78L302.459 359.894C301.851 360.089 301.189 360.038 300.617 359.752C300.045 359.467 299.608 358.969 299.398 358.365V358.365Z" fill="#263238"/>
<path d="M307.447 355.637L301.254 345.358C301.23 345.319 301.214 345.275 301.207 345.23C301.2 345.184 301.203 345.138 301.214 345.093C301.225 345.049 301.244 345.007 301.272 344.97C301.299 344.933 301.333 344.902 301.373 344.878L305.278 342.524C305.318 342.501 305.361 342.485 305.407 342.478C305.452 342.471 305.499 342.474 305.543 342.485C305.588 342.496 305.63 342.515 305.667 342.543C305.704 342.57 305.735 342.604 305.759 342.644L311.952 352.922C312.287 353.479 312.388 354.146 312.231 354.776C312.075 355.407 311.674 355.95 311.118 356.285L310.809 356.471C310.253 356.806 309.586 356.907 308.955 356.75C308.325 356.594 307.782 356.193 307.447 355.637V355.637Z" fill="#263238"/>
<path d="M315.177 349.969L306.195 342.012C306.126 341.95 306.083 341.864 306.078 341.771C306.072 341.678 306.104 341.587 306.165 341.518L309.182 338.112C309.244 338.043 309.331 338 309.423 337.995C309.516 337.989 309.607 338.021 309.677 338.082L318.658 346.04C319.145 346.471 319.44 347.077 319.479 347.726C319.518 348.374 319.298 349.012 318.868 349.498L318.629 349.768C318.197 350.251 317.591 350.544 316.944 350.582C316.298 350.619 315.662 350.399 315.177 349.969V349.969Z" fill="#263238"/>
<path d="M109 219.74C109 219.74 110.35 350.88 183.94 353.44C257.53 356 260.62 220.68 260.62 219.74C260.62 219.74 251.93 200.19 184.81 200.95C117.69 201.71 109 219.74 109 219.74Z" fill="#955EBE"/>
<path d="M150.32 196.66H212.52C216.579 196.66 219.87 193.369 219.87 189.31V188.24C219.87 184.181 216.579 180.89 212.52 180.89H150.32C146.261 180.89 142.97 184.181 142.97 188.24V189.31C142.97 193.369 146.261 196.66 150.32 196.66Z" fill="#263238"/>
<path d="M178.74 80.05H184.11V52.9H178.74V80.05Z" fill="#263238"/>
<path d="M263.534 160.877C272.013 158.862 277.253 150.355 275.237 141.876C273.222 133.397 264.715 128.157 256.236 130.172C247.757 132.188 242.517 140.695 244.533 149.174C246.548 157.652 255.055 162.892 263.534 160.877Z" fill="#955EBE"/>
<path d="M104.086 159.852C112.586 157.924 117.913 149.472 115.985 140.972C114.057 132.473 105.604 127.146 97.1051 129.074C88.606 131.002 83.2789 139.455 85.2067 147.954C87.1346 156.453 95.5873 161.78 104.086 159.852Z" fill="#955EBE"/>
<path d="M178.3 74.16C178.3 74.16 114.14 73.39 104 129C93.8599 184.61 148.1 185.61 163.71 186.66C170.78 187.14 185.92 187.19 199.28 186.95C228.86 186.44 249.76 180.72 256.87 153.28C257.717 150.062 258.249 146.77 258.46 143.45C260.33 113.33 240 72.68 178.3 74.16Z" fill="#955EBE"/>
<path d="M224.84 158.8L131.63 160.25C129.304 160.291 126.993 159.873 124.83 159.02C122.666 158.167 120.691 156.895 119.019 155.278C117.347 153.661 116.011 151.73 115.086 149.596C114.161 147.461 113.666 145.166 113.63 142.84V142.84C113.59 140.514 114.01 138.203 114.864 136.039C115.718 133.875 116.99 131.9 118.608 130.229C120.226 128.557 122.158 127.22 124.293 126.296C126.428 125.371 128.724 124.876 131.05 124.84L224.26 123.39C226.586 123.348 228.898 123.765 231.062 124.617C233.227 125.47 235.201 126.742 236.874 128.359C238.546 129.976 239.882 131.908 240.807 134.043C241.731 136.178 242.225 138.474 242.26 140.8C242.301 143.127 241.883 145.438 241.029 147.603C240.175 149.767 238.903 151.742 237.285 153.414C235.666 155.086 233.734 156.423 231.599 157.347C229.463 158.271 227.167 158.765 224.84 158.8V158.8Z" fill="#263238"/>
<path d="M151 140.91C150.783 142.012 150.245 143.025 149.452 143.821C148.66 144.617 147.649 145.16 146.548 145.382C145.446 145.604 144.304 145.494 143.265 145.067C142.227 144.639 141.338 143.913 140.712 142.981C140.085 142.048 139.75 140.951 139.747 139.828C139.744 138.705 140.074 137.606 140.696 136.67C141.318 135.735 142.203 135.004 143.24 134.572C144.276 134.139 145.418 134.024 146.52 134.24C147.252 134.384 147.949 134.67 148.57 135.083C149.192 135.496 149.726 136.027 150.142 136.647C150.558 137.266 150.848 137.962 150.995 138.693C151.142 139.425 151.144 140.178 151 140.91V140.91Z" fill="white"/>
<path d="M216.09 139.87C215.875 140.973 215.338 141.987 214.546 142.785C213.754 143.583 212.744 144.127 211.642 144.35C210.541 144.573 209.398 144.465 208.359 144.038C207.319 143.612 206.429 142.886 205.802 141.954C205.175 141.021 204.838 139.924 204.835 138.8C204.832 137.676 205.162 136.577 205.784 135.641C206.405 134.705 207.291 133.974 208.328 133.541C209.365 133.109 210.507 132.993 211.61 133.21C213.087 133.5 214.388 134.364 215.228 135.613C216.068 136.862 216.378 138.393 216.09 139.87V139.87Z" fill="white"/>
<path d="M206.72 271.82C206.355 276.824 204.514 281.608 201.43 285.566C198.346 289.524 194.158 292.478 189.395 294.056C184.632 295.634 179.508 295.764 174.671 294.43C169.834 293.095 165.502 290.357 162.221 286.56C158.941 282.764 156.859 278.08 156.241 273.101C155.622 268.121 156.494 263.07 158.746 258.587C160.998 254.103 164.529 250.387 168.892 247.91C173.256 245.433 178.256 244.306 183.26 244.67C189.971 245.161 196.211 248.297 200.611 253.388C205.01 258.48 207.207 265.109 206.72 271.82V271.82Z" fill="#263238"/>
<path d="M199.85 271.32C199.583 274.967 198.241 278.454 195.993 281.338C193.744 284.222 190.691 286.375 187.219 287.524C183.748 288.673 180.013 288.767 176.488 287.794C172.963 286.82 169.806 284.823 167.415 282.056C165.025 279.288 163.509 275.873 163.06 272.244C162.61 268.615 163.247 264.934 164.889 261.666C166.532 258.399 169.106 255.692 172.287 253.888C175.468 252.083 179.113 251.263 182.76 251.53C185.182 251.706 187.546 252.358 189.716 253.448C191.886 254.538 193.82 256.045 195.407 257.883C196.994 259.721 198.203 261.854 198.966 264.159C199.728 266.465 200.029 268.898 199.85 271.32V271.32Z" fill="#C2CB56"/>
<path d="M190.94 274.68C190.799 273.67 190.742 272.65 190.77 271.63C190.72 269.72 190.68 266.99 190.68 263.63L190.88 264L181.37 258.45H181.9L172.3 263.84C172.04 264.28 172.65 263.25 172.59 263.36V264.78V266.21C172.59 267.15 172.59 268.09 172.54 269.01C172.54 270.85 172.47 272.63 172.44 274.35L172.18 273.89L181.58 279.63H181.16C184.09 278.05 186.51 276.79 188.16 275.93C189.048 275.425 189.974 274.99 190.93 274.63C190.184 275.238 189.38 275.77 188.53 276.22C186.91 277.22 184.53 278.63 181.53 280.36L181.32 280.48L181.11 280.36L171.59 274.81L171.33 274.66V274.34C171.33 272.62 171.35 270.84 171.39 269C171.39 268.08 171.39 267.15 171.39 266.2V264.78V263.4C171.33 263.51 171.94 262.49 171.68 262.92L181.31 257.58L181.59 257.43L181.85 257.59L191.24 263.33L191.45 263.46V263.7C191.34 267.16 191.23 269.94 191.13 271.83C191.156 272.784 191.092 273.738 190.94 274.68Z" fill="#955EBE"/>
<path d="M187.689 58.6078C191.145 55.1517 191.145 49.5482 187.689 46.092C184.233 42.6359 178.629 42.6359 175.173 46.092C171.717 49.5482 171.717 55.1517 175.173 58.6078C178.629 62.0639 184.233 62.064 187.689 58.6078Z" fill="#955EBE"/>
<path d="M167.29 138.29C167.71 138.34 167.5 140.29 168.74 142.96C169.443 144.493 170.466 145.857 171.74 146.96C173.234 148.274 175.094 149.101 177.07 149.33C179.057 149.458 181.037 148.984 182.75 147.97C184.2 147.127 185.455 145.985 186.43 144.62C188.13 142.25 188.28 140.26 188.7 140.29C188.87 140.29 189.04 140.79 189.04 141.73C189.002 143.069 188.66 144.382 188.04 145.57C187.108 147.365 185.731 148.891 184.04 150C181.95 151.473 179.403 152.154 176.857 151.921C174.31 151.689 171.929 150.558 170.14 148.73C168.68 147.334 167.605 145.584 167.02 143.65C166.603 142.36 166.494 140.99 166.7 139.65C166.87 138.72 167.13 138.26 167.29 138.29Z" fill="white"/>
<path d="M252.72 164.2C252.62 164.2 253.77 162.4 254.88 159.25C256.26 155.125 257.134 150.846 257.48 146.51C257.88 142.189 257.981 137.845 257.78 133.51C257.71 131.84 257.63 130.51 257.55 129.51C257.482 129.026 257.466 128.537 257.5 128.05C257.628 128.521 257.712 129.003 257.75 129.49C257.89 130.42 258.03 131.77 258.15 133.49C258.464 137.86 258.413 142.248 258 146.61C257.648 150.987 256.717 155.298 255.23 159.43C254.759 160.676 254.191 161.883 253.53 163.04C253.294 163.449 253.023 163.837 252.72 164.2V164.2Z" fill="#263238"/>
<path d="M104.12 127.14C104.063 127.626 103.959 128.105 103.81 128.57C103.68 129.02 103.54 129.57 103.41 130.23C103.28 130.89 103.08 131.61 102.96 132.44C102.609 134.367 102.376 136.314 102.26 138.27C102.125 140.663 102.159 143.062 102.36 145.45C102.583 147.834 102.971 150.199 103.52 152.53C103.979 154.436 104.553 156.313 105.24 158.15C105.51 158.94 105.82 159.63 106.07 160.25C106.32 160.87 106.56 161.39 106.76 161.81C106.988 162.242 107.175 162.694 107.32 163.16C107.035 162.763 106.788 162.342 106.58 161.9C106.297 161.4 106.04 160.886 105.81 160.36C105.53 159.76 105.19 159.07 104.9 158.28C104.157 156.448 103.543 154.567 103.06 152.65C102.475 150.297 102.067 147.904 101.84 145.49C101.636 143.078 101.616 140.655 101.78 138.24C101.919 136.267 102.193 134.306 102.6 132.37C102.75 131.54 102.96 130.81 103.13 130.16C103.3 129.51 103.46 128.96 103.61 128.51C103.742 128.04 103.913 127.582 104.12 127.14V127.14Z" fill="#263238"/>
<path d="M108.66 219.63L109.04 219.74L110.16 220.12L114.42 221.62L117.5 222.72C118.63 223.1 119.88 223.46 121.21 223.87C123.88 224.66 126.89 225.69 130.31 226.49L135.64 227.86C137.5 228.33 139.46 228.68 141.48 229.12C145.48 230.04 149.87 230.67 154.48 231.41C164.449 232.778 174.497 233.496 184.56 233.56C194.623 233.501 204.671 232.783 214.64 231.41C219.22 230.67 223.58 230.05 227.64 229.12C229.64 228.69 231.64 228.34 233.48 227.87L238.82 226.5C242.23 225.7 245.24 224.67 247.91 223.88C249.24 223.47 250.49 223.11 251.62 222.73L254.7 221.63L258.96 220.13L260.08 219.75C260.206 219.7 260.337 219.663 260.47 219.64L260.1 219.8L259 220.23L254.77 221.82L251.62 223C250.5 223.39 249.25 223.76 247.92 224.19C245.25 225.01 242.25 226.06 238.83 226.89L233.49 228.29C231.64 228.77 229.67 229.13 227.65 229.58C223.65 230.52 219.25 231.16 214.65 231.92C204.66 233.322 194.588 234.053 184.5 234.11C174.416 234.046 164.347 233.311 154.36 231.91C149.77 231.16 145.36 230.51 141.36 229.57C139.36 229.12 137.36 228.76 135.52 228.28L130.18 226.88C126.76 226.05 123.76 225 121.09 224.18C119.76 223.75 118.52 223.38 117.39 222.99L114.32 221.84L110.09 220.25L108.99 219.82C108.874 219.767 108.764 219.704 108.66 219.63Z" fill="#263238"/>
<g opacity="0.3">
<path opacity="0.3" d="M109 219.74C109 219.74 117.69 201.74 184.81 200.95C251.93 200.16 260.62 219.74 260.62 219.74C260.62 219.74 192.88 253.13 109 219.74Z" fill="black"/>
</g>
<path d="M170.17 78.32C170.093 78.3273 170.016 78.3273 169.94 78.32L169.27 78.39C168.67 78.45 167.79 78.47 166.66 78.6C163.472 78.9094 160.308 79.434 157.19 80.17C141.065 83.8631 126.841 93.3144 117.19 106.75C112.527 113.206 108.997 120.409 106.75 128.05C106.4 129.13 106.21 129.99 106.04 130.56L105.85 131.22C105.832 131.296 105.805 131.37 105.77 131.44C105.757 131.364 105.757 131.286 105.77 131.21C105.77 131.03 105.85 130.81 105.91 130.54C106.05 129.96 106.2 129.09 106.52 127.99C107.355 124.883 108.424 121.844 109.72 118.9C113.994 109.115 120.502 100.467 128.72 93.65C136.973 86.8841 146.696 82.1443 157.11 79.81C160.246 79.0974 163.432 78.6261 166.64 78.4C167.78 78.3 168.64 78.31 169.26 78.28H169.94C170.1 78.3 170.17 78.31 170.17 78.32Z" fill="white"/>
<path d="M107.4 155.3C106.999 154.681 106.689 154.007 106.48 153.3C105.294 149.958 104.741 146.424 104.85 142.88C104.821 142.144 104.909 141.408 105.11 140.7C105.27 140.7 105.05 144.04 105.69 148.08C106.33 152.12 107.55 155.24 107.4 155.3Z" fill="white"/>
<path d="M90.5701 150.13C90.5701 150.13 90.3401 149.97 90.0301 149.59C89.5881 149.051 89.209 148.464 88.9001 147.84C87.8322 145.773 87.4236 143.428 87.7293 141.121C88.0351 138.815 89.0405 136.658 90.6101 134.94C91.0698 134.414 91.5901 133.944 92.1601 133.54C92.3558 133.375 92.5793 133.247 92.8201 133.16C92.8801 133.24 91.9801 133.85 90.8901 135.16C89.4595 136.873 88.5442 138.957 88.2503 141.17C87.9565 143.382 88.2962 145.633 89.2301 147.66C89.9301 149.25 90.6401 150.07 90.5701 150.13Z" fill="white"/>
<path d="M182 46.18C181.22 46.0941 180.433 46.0774 179.65 46.13C178.717 46.2118 177.816 46.5062 177.014 46.9906C176.213 47.475 175.534 48.1364 175.028 48.9243C174.522 49.7121 174.203 50.6053 174.096 51.5354C173.989 52.4655 174.096 53.4078 174.41 54.29C174.68 55.0217 175.015 55.7278 175.41 56.4C175.41 56.4 175.21 56.28 174.93 55.96C174.546 55.4971 174.241 54.9732 174.03 54.41C173.648 53.4762 173.497 52.4642 173.59 51.4597C173.682 50.4553 174.015 49.4878 174.561 48.6392C175.106 47.7907 175.848 47.086 176.723 46.5848C177.599 46.0837 178.582 45.8007 179.59 45.76C180.189 45.7185 180.79 45.7759 181.37 45.93C181.82 46 182 46.15 182 46.18Z" fill="white"/>
<path d="M269.16 138C269.05 138.12 267.5 136.63 265.16 135.51C262.82 134.39 260.69 134.06 260.71 133.9C262.34 133.859 263.952 134.253 265.38 135.04C266.883 135.669 268.189 136.691 269.16 138V138Z" fill="white"/>
<path d="M132 313.07C131.954 313.01 131.914 312.947 131.88 312.88L131.55 312.29C131.25 311.72 130.85 310.96 130.33 309.99C130.07 309.49 129.79 308.93 129.47 308.33L128.53 306.33C127.85 304.88 127.09 303.23 126.34 301.33C125.96 300.4 125.56 299.42 125.14 298.41C124.72 297.4 124.36 296.3 123.95 295.19C123.09 292.98 122.36 290.55 121.51 288.03C119.94 282.93 118.4 277.28 117.05 271.28C115.7 265.28 114.72 259.49 113.92 254.22C113.12 248.95 112.6 244.22 112.28 240.16C112.09 238.16 111.97 236.34 111.87 234.74C111.77 233.14 111.68 231.74 111.65 230.64C111.62 229.54 111.59 228.69 111.56 228.05V227.38C111.549 227.304 111.549 227.226 111.56 227.15C111.572 227.226 111.572 227.304 111.56 227.38L111.62 228.05C111.62 228.68 111.73 229.55 111.8 230.63C111.87 231.71 111.97 233.13 112.11 234.72C112.25 236.31 112.38 238.13 112.6 240.13C112.96 244.13 113.6 248.89 114.35 254.13C115.1 259.37 116.19 265.13 117.51 271.13C118.83 277.13 120.38 282.77 121.91 287.86C122.76 290.38 123.47 292.8 124.31 295.01C124.71 296.13 125.09 297.2 125.47 298.23L126.63 301.17C127.35 303.04 128.09 304.7 128.75 306.17L129.65 308.17C129.94 308.78 130.22 309.34 130.47 309.85L131.59 312.19L131.87 312.8C131.931 312.881 131.975 312.972 132 313.07Z" fill="white"/>
<path d="M92.87 231.54C90.4303 231.632 87.9871 231.545 85.56 231.28C83.1216 231.195 80.6923 230.937 78.29 230.51C80.7298 230.418 83.173 230.505 85.6 230.77C88.0385 230.855 90.4679 231.112 92.87 231.54Z" fill="white"/>
<path d="M55.2501 210.19C53.8318 208.124 52.5588 205.962 51.4401 203.72C50.1723 201.56 49.0563 199.315 48.1001 197C49.5141 199.07 50.7837 201.235 51.9001 203.48C53.1744 205.634 54.2939 207.877 55.2501 210.19V210.19Z" fill="white"/>
<path d="M167.5 344.6C167.106 344.593 166.714 344.546 166.33 344.46C165.272 344.272 164.227 344.018 163.2 343.7C161.675 343.236 160.185 342.664 158.74 341.99C156.98 341.142 155.289 340.159 153.68 339.05C152.089 337.914 150.591 336.653 149.2 335.28C148.073 334.151 147.03 332.941 146.08 331.66C145.429 330.805 144.838 329.906 144.31 328.97C144.094 328.641 143.916 328.289 143.78 327.92C143.86 327.87 144.7 329.32 146.37 331.44C147.352 332.672 148.41 333.841 149.54 334.94C152.308 337.629 155.484 339.863 158.95 341.56C160.366 342.244 161.822 342.842 163.31 343.35C165.87 344.21 167.52 344.5 167.5 344.6Z" fill="white"/>
<path d="M182.84 298.34C182.609 298.38 182.375 298.404 182.14 298.41C181.475 298.466 180.807 298.486 180.14 298.47C177.653 298.415 175.186 298.015 172.81 297.28C171.168 296.769 169.569 296.127 168.03 295.36C166.265 294.452 164.59 293.377 163.03 292.15C159.415 289.373 156.566 285.723 154.75 281.542C152.935 277.361 152.212 272.787 152.65 268.25C152.813 266.281 153.164 264.332 153.7 262.43C154.179 260.78 154.798 259.175 155.55 257.63C156.635 255.39 158.028 253.313 159.69 251.46C160.136 250.953 160.61 250.473 161.11 250.02C161.275 249.854 161.452 249.701 161.64 249.56C161.64 249.56 160.98 250.27 159.84 251.56C158.24 253.442 156.895 255.526 155.84 257.76C154.267 261.052 153.331 264.611 153.08 268.25C152.675 272.707 153.396 277.194 155.179 281.298C156.961 285.403 159.747 288.994 163.28 291.74C164.794 292.959 166.422 294.03 168.14 294.94C169.646 295.734 171.214 296.403 172.83 296.94C175.171 297.699 177.602 298.146 180.06 298.27C181.87 298.34 182.84 298.28 182.84 298.34Z" fill="white"/>
<path d="M61.77 219.59C61.77 219.67 61 219.3 59.77 219.01C58.1241 218.65 56.418 218.667 54.7796 219.06C53.1413 219.453 51.6132 220.212 50.31 221.28C49.31 222.11 48.83 222.77 48.76 222.72C49.0344 222.058 49.4589 221.47 50 221C51.2979 219.809 52.8782 218.969 54.5914 218.56C56.3046 218.15 58.0939 218.185 59.79 218.66C60.5128 218.814 61.1904 219.132 61.77 219.59V219.59Z" fill="white"/>
<path d="M209.44 120.16C209.44 120.3 197.16 120.42 182.02 120.42C166.88 120.42 154.59 120.3 154.59 120.16C154.59 120.02 166.87 119.9 182.02 119.9C197.17 119.9 209.44 120 209.44 120.16Z" fill="white"/>
<path d="M162.64 182.69C162.49 182.732 162.336 182.756 162.18 182.76L160.84 182.88C160.26 182.93 159.55 182.97 158.72 182.99C157.89 183.01 156.95 183.05 155.91 182.99C153.82 182.99 151.34 182.84 148.59 182.55C145.614 182.204 142.66 181.693 139.74 181.02C136.827 180.321 133.956 179.46 131.14 178.44C128.846 177.6 126.596 176.642 124.4 175.57C123.4 175.13 122.63 174.67 121.9 174.28C121.17 173.89 120.55 173.54 120.05 173.28L118.9 172.58C118.764 172.504 118.636 172.414 118.52 172.31C118.52 172.31 118.68 172.31 118.95 172.49L120.15 173.1C120.66 173.38 121.29 173.71 122.03 174.1C122.77 174.49 123.61 174.89 124.56 175.31C126.44 176.19 128.73 177.13 131.31 178.06C136.917 180.07 142.735 181.439 148.65 182.14C151.37 182.46 153.84 182.64 155.91 182.69C156.91 182.75 157.91 182.69 158.72 182.69C159.53 182.69 160.25 182.69 160.83 182.69H162.17C162.326 182.664 162.484 182.664 162.64 182.69V182.69Z" fill="white"/>
<path d="M242.47 227.75C242.396 227.799 242.315 227.836 242.23 227.86L241.51 228.13L238.73 229.13C237.52 229.57 236.04 230.08 234.29 230.59C232.54 231.1 230.57 231.76 228.34 232.32L224.86 233.24C223.65 233.55 222.37 233.81 221.06 234.12C218.44 234.75 215.6 235.25 212.62 235.82C199.64 238.081 186.449 238.889 173.29 238.23C170.29 238.04 167.38 237.89 164.7 237.58C163.36 237.44 162.06 237.34 160.82 237.17L157.25 236.68C154.97 236.41 152.93 236 151.14 235.68C149.35 235.36 147.8 235.06 146.55 234.77L143.67 234.13L142.92 233.95C142.833 233.936 142.749 233.909 142.67 233.87C142.76 233.863 142.85 233.863 142.94 233.87L143.69 234L146.59 234.55C147.85 234.8 149.39 235.09 151.19 235.36C152.99 235.63 155.02 236.02 157.3 236.27L160.86 236.72C162.1 236.88 163.4 236.97 164.74 237.1C167.41 237.39 170.29 237.52 173.31 237.7C179.36 237.95 186.01 237.96 192.99 237.55C199.97 237.14 206.56 236.27 212.53 235.29C215.53 234.74 218.35 234.29 220.97 233.65C222.28 233.35 223.56 233.1 224.77 232.8L228.25 231.91C230.48 231.38 232.45 230.76 234.2 230.26C235.95 229.76 237.45 229.26 238.66 228.89L241.47 227.99L242.21 227.77L242.47 227.75Z" fill="white"/>
<defs>
<linearGradient id="paint0_linear_33_464" x1="329.5" y1="270.5" x2="59" y2="228" gradientUnits="userSpaceOnUse">
<stop stop-color="#28B199"/>
<stop offset="1" stop-color="#6AC8A6"/>
</linearGradient>
</defs>
</svg>
