<svg width="65" height="62" viewBox="0 0 65 62" fill="none" xmlns="http://www.w3.org/2000/svg">
<circle cx="32" cy="31" r="30" fill="url(#paint0_linear_33_364)" stroke="#5828BE" stroke-width="2"/>
<g clip-path="url(#clip0_33_364)">
<path d="M23.7889 48.6648H40.7342C41.8401 48.6648 42.7366 47.7434 42.7366 46.6068V46.3072C42.7366 45.1706 41.8401 44.2492 40.7342 44.2492H23.7889C22.683 44.2492 21.7865 45.1706 21.7865 46.3072V46.6068C21.7865 47.7434 22.683 48.6648 23.7889 48.6648Z" fill="#263238"/>
<path d="M31.5312 16.014H32.9941V8.41198H31.5312V16.014Z" fill="#263238"/>
<path d="M54.6319 38.6455C56.9419 38.0813 58.3693 35.6993 57.8203 33.3252C57.2713 30.9511 54.9537 29.484 52.6438 30.0482C50.3339 30.6125 48.9064 32.9945 49.4554 35.3686C50.0044 37.7427 52.322 39.2098 54.6319 38.6455Z" fill="#955EBE"/>
<path d="M11.1932 38.3586C13.5086 37.8188 14.9599 35.452 14.4347 33.0723C13.9095 30.6925 11.6067 29.2009 9.29124 29.7407C6.97579 30.2805 5.52452 32.6473 6.04973 35.0271C6.57493 37.4068 8.87773 38.8984 11.1932 38.3586Z" fill="#955EBE"/>
<path d="M31.4114 14.3648C31.4114 14.3648 13.9321 14.1492 11.1696 29.72C8.40717 45.2908 23.1839 45.5708 27.4366 45.8648C29.3627 45.9992 33.4873 46.0132 37.127 45.946C45.1855 45.8032 50.8794 44.2016 52.8164 36.5184C53.0471 35.6175 53.1921 34.6957 53.2495 33.766C53.759 25.3324 48.2204 13.9504 31.4114 14.3648Z" fill="#955EBE"/>
<path d="M44.0904 38.064L18.697 38.47C18.0634 38.4815 17.4338 38.3645 16.8443 38.1256C16.2548 37.8867 15.7169 37.5307 15.2614 37.0779C14.8059 36.6251 14.4418 36.0844 14.1898 35.4868C13.9379 34.8892 13.8031 34.2464 13.7932 33.5952C13.7824 32.9439 13.8966 32.2968 14.1293 31.6908C14.362 31.0849 14.7087 30.5321 15.1495 30.064C15.5902 29.5959 16.1165 29.2217 16.6981 28.9628C17.2797 28.7039 17.9052 28.5654 18.539 28.5552L43.9324 28.1492C44.5661 28.1373 45.1958 28.2541 45.7855 28.4929C46.3751 28.7316 46.9132 29.0876 47.3687 29.5405C47.8243 29.9934 48.1884 30.5342 48.4402 31.1319C48.692 31.7297 48.8266 32.3727 48.8362 33.024C48.8473 33.6754 48.7334 34.3227 48.5008 34.9288C48.2682 35.5349 47.9215 36.0878 47.4807 36.556C47.0399 37.0242 46.5135 37.3984 45.9317 37.6571C45.3499 37.9159 44.7242 38.0542 44.0904 38.064Z" fill="#263238"/>
<path d="M23.9741 33.0548C23.915 33.3634 23.7682 33.6471 23.5523 33.87C23.3364 34.0929 23.0611 34.2449 22.7611 34.307C22.4611 34.3691 22.1499 34.3383 21.8669 34.2186C21.5839 34.099 21.3418 33.8957 21.1712 33.6346C21.0006 33.3735 20.9091 33.0663 20.9083 32.7518C20.9076 32.4373 20.9976 32.1296 21.1669 31.8677C21.3363 31.6057 21.5774 31.4012 21.8598 31.2801C22.1423 31.159 22.4533 31.1267 22.7536 31.1872C22.953 31.2274 23.1429 31.3076 23.3122 31.4233C23.4815 31.5389 23.627 31.6877 23.7403 31.8611C23.8536 32.0345 23.9326 32.2292 23.9727 32.4341C24.0128 32.6389 24.0133 32.8498 23.9741 33.0548Z" fill="white"/>
<path d="M41.7066 32.7636C41.6481 33.0724 41.5017 33.3565 41.286 33.5798C41.0703 33.8031 40.795 33.9556 40.495 34.0181C40.1949 34.0806 39.8836 34.0501 39.6003 33.9307C39.3171 33.8112 39.0747 33.6081 38.9038 33.347C38.733 33.0859 38.6413 32.7786 38.6404 32.464C38.6395 32.1493 38.7294 31.8415 38.8988 31.5794C39.0682 31.3173 39.3095 31.1127 39.592 30.9916C39.8746 30.8704 40.1857 30.8381 40.4861 30.8988C40.8884 30.98 41.2429 31.222 41.4718 31.5717C41.7006 31.9213 41.7851 32.35 41.7066 32.7636Z" fill="white"/>
<path d="M33.9692 10.0101C34.9107 9.04243 34.9107 7.47344 33.9692 6.50572C33.0276 5.538 31.501 5.53801 30.5595 6.50573C29.6179 7.47344 29.6179 9.04243 30.5595 10.0101C31.501 10.9779 33.0276 10.9779 33.9692 10.0101Z" fill="#955EBE"/>
<path d="M28.4119 32.3212C28.5263 32.3352 28.4691 32.8812 28.8069 33.6288C28.9983 34.0579 29.277 34.4398 29.6242 34.7488C30.0312 35.1168 30.5378 35.3483 31.0763 35.4124C31.6176 35.4483 32.1569 35.3156 32.6237 35.0316C33.0188 34.7954 33.3605 34.4757 33.6263 34.0936C34.0894 33.43 34.1303 32.8728 34.2447 32.8812C34.291 32.8812 34.3373 33.0212 34.3373 33.2844C34.3269 33.6594 34.2338 34.027 34.0649 34.3596C33.8111 34.8622 33.4358 35.2893 32.9751 35.6C32.4056 36.0124 31.7119 36.2031 31.0181 36.138C30.3243 36.0728 29.6757 35.7561 29.1883 35.2444C28.7905 34.8534 28.4978 34.3634 28.3383 33.822C28.2248 33.4607 28.1949 33.0772 28.2512 32.702C28.2975 32.4416 28.3683 32.3128 28.4119 32.3212Z" fill="white"/>
<path d="M51.6857 39.576C51.6585 39.576 51.9718 39.072 52.2742 38.19C52.6503 37.0349 52.8881 35.837 52.9825 34.6228C53.0916 33.4129 53.1189 32.1966 53.0642 30.9828C53.0452 30.5152 53.0234 30.1428 53.0016 29.8628C52.9832 29.7274 52.9786 29.5904 52.988 29.454C53.0229 29.5859 53.0457 29.7209 53.0561 29.8572C53.0942 30.1176 53.1324 30.4956 53.165 30.9772C53.2505 32.2008 53.2368 33.4296 53.1242 34.6508C53.0283 35.8764 52.7746 37.0835 52.3695 38.2404C52.2413 38.5894 52.0865 38.9273 51.9064 39.2512C51.842 39.3658 51.7682 39.4744 51.6857 39.576Z" fill="#263238"/>
<path d="M11.2024 29.1992C11.1869 29.3352 11.1586 29.4693 11.1179 29.5996C11.0825 29.7256 11.0443 29.8796 11.0089 30.0644C10.9735 30.2492 10.919 30.4508 10.8863 30.6832C10.7908 31.2229 10.7271 31.768 10.6956 32.3156C10.659 32.9856 10.6681 33.6573 10.7229 34.326C10.7837 34.9935 10.8893 35.6558 11.0389 36.3084C11.164 36.8422 11.3205 37.3677 11.5075 37.882C11.581 38.1032 11.6655 38.2964 11.7336 38.47C11.8017 38.6436 11.8671 38.7892 11.9216 38.9068C11.9837 39.0277 12.0348 39.1542 12.0741 39.2848C11.9966 39.1738 11.9291 39.0557 11.8725 38.932C11.7955 38.792 11.7255 38.6481 11.6628 38.5008C11.5865 38.3328 11.4939 38.1396 11.4149 37.9184C11.2126 37.4054 11.0451 36.8787 10.9136 36.342C10.7541 35.6832 10.643 35.0131 10.5812 34.3372C10.5257 33.6619 10.5202 32.9833 10.5649 32.3072C10.6029 31.7547 10.6775 31.2056 10.7883 30.6636C10.8291 30.4312 10.8863 30.2268 10.9326 30.0448C10.979 29.8628 11.0226 29.7088 11.0634 29.5828C11.0995 29.4513 11.146 29.323 11.2024 29.1992Z" fill="#263238"/>
<path d="M29.1964 15.5296C29.1756 15.5316 29.1546 15.5316 29.1337 15.5296L28.9512 15.5492C28.7878 15.566 28.548 15.5716 28.2402 15.608C27.3715 15.6946 26.5096 15.8415 25.6602 16.0476C21.2672 17.0816 17.3923 19.728 14.7629 23.49C13.4926 25.2978 12.5308 27.3146 11.9187 29.454C11.8234 29.7564 11.7716 29.9972 11.7253 30.1568L11.6736 30.3416C11.6687 30.3629 11.6613 30.3836 11.6518 30.4032C11.6481 30.3819 11.6481 30.3601 11.6518 30.3388C11.6518 30.2884 11.6736 30.2268 11.6899 30.1512C11.728 29.9888 11.7689 29.7452 11.8561 29.4372C12.0835 28.5673 12.3749 27.7164 12.7279 26.892C13.8923 24.1522 15.6651 21.7308 17.9041 19.822C20.1526 17.9275 22.8014 16.6004 25.6384 15.9468C26.4928 15.7473 27.3608 15.6153 28.2347 15.552C28.5453 15.524 28.7796 15.5268 28.9485 15.5184H29.1337C29.1773 15.524 29.1964 15.5268 29.1964 15.5296Z" fill="white"/>
<path d="M12.0958 37.084C11.9867 36.9106 11.9023 36.722 11.8452 36.524C11.522 35.5883 11.3714 34.5989 11.4011 33.6064C11.3934 33.4004 11.4173 33.1944 11.472 32.996C11.5156 32.996 11.4556 33.9312 11.63 35.0624C11.8043 36.1936 12.1367 37.0672 12.0958 37.084Z" fill="white"/>
<path d="M7.51088 35.6364C7.51088 35.6364 7.44822 35.5916 7.36377 35.4852C7.24338 35.3344 7.14009 35.17 7.05592 34.9952C6.76499 34.4164 6.65367 33.7598 6.73697 33.114C6.82027 32.4682 7.09417 31.8641 7.52178 31.3832C7.64702 31.2359 7.78876 31.1043 7.94405 30.9912C7.99738 30.9451 8.05826 30.909 8.12385 30.8848C8.1402 30.9072 7.89501 31.078 7.59806 31.4448C7.20833 31.9245 6.95896 32.508 6.87892 33.1275C6.79887 33.747 6.89142 34.3772 7.14582 34.9448C7.33653 35.39 7.52995 35.6196 7.51088 35.6364Z" fill="white"/>
<path d="M32.4193 6.53038C32.2067 6.50634 31.9925 6.50165 31.7791 6.51638C31.525 6.5393 31.2794 6.62173 31.0611 6.75735C30.8429 6.89298 30.6577 7.07819 30.5199 7.29877C30.382 7.51936 30.2952 7.76947 30.266 8.0299C30.2369 8.29033 30.2661 8.55418 30.3516 8.80118C30.4251 9.00605 30.5163 9.20376 30.624 9.39198C30.624 9.39198 30.5695 9.35838 30.4932 9.26878C30.3886 9.13917 30.3057 8.99248 30.248 8.83479C30.1441 8.57332 30.103 8.28997 30.1282 8.00871C30.1533 7.72745 30.244 7.45656 30.3926 7.21897C30.5412 6.98137 30.7433 6.78406 30.9818 6.64374C31.2203 6.50341 31.4882 6.42419 31.7628 6.41279C31.9259 6.40116 32.0897 6.41724 32.2477 6.46038C32.3703 6.47998 32.4193 6.52198 32.4193 6.53038Z" fill="white"/>
<path d="M56.1647 32.24C56.1347 32.2736 55.7124 31.8564 55.0749 31.5428C54.4374 31.2292 53.8571 31.1368 53.8626 31.092C54.3067 31.0806 54.7458 31.1908 55.1349 31.4112C55.5444 31.5872 55.9001 31.8736 56.1647 32.24Z" fill="white"/>
<path d="M39.8949 27.2448C39.8949 27.284 36.5495 27.3176 32.4248 27.3176C28.3002 27.3176 24.952 27.284 24.952 27.2448C24.952 27.2056 28.2975 27.172 32.4248 27.172C36.5522 27.172 39.8949 27.2 39.8949 27.2448Z" fill="white"/>
<path d="M27.1452 44.7532C27.1044 44.765 27.0623 44.7716 27.0199 44.7728L26.6548 44.8064C26.4968 44.8204 26.3034 44.8316 26.0773 44.8372C25.8512 44.8428 25.5951 44.854 25.3117 44.8372C24.7424 44.8372 24.0667 44.7952 23.3175 44.714C22.5068 44.617 21.7019 44.474 20.9065 44.2856C20.113 44.09 19.3308 43.8488 18.5636 43.5632C17.9385 43.3279 17.3256 43.0597 16.7274 42.7596C16.455 42.6364 16.2452 42.5076 16.0463 42.3984C15.8474 42.2892 15.6785 42.1912 15.5423 42.1184L15.229 41.9224C15.1919 41.9012 15.1571 41.8759 15.1255 41.8468C15.1255 41.8468 15.1691 41.8468 15.2426 41.8972L15.5696 42.068C15.7085 42.1464 15.8801 42.2388 16.0817 42.348C16.2833 42.4572 16.5122 42.5692 16.771 42.6868C17.2832 42.9332 17.907 43.1964 18.6099 43.4568C20.1375 44.0197 21.7223 44.4029 23.3339 44.5992C24.0749 44.6888 24.7478 44.7392 25.3117 44.7532C25.5842 44.77 25.8566 44.7532 26.0773 44.7532C26.2979 44.7532 26.4941 44.7532 26.6521 44.7532H27.0172C27.0596 44.7459 27.1028 44.7459 27.1452 44.7532Z" fill="white"/>
</g>
<defs>
<linearGradient id="paint0_linear_33_364" x1="58.9155" y1="32.8299" x2="2.18388" y2="24.1573" gradientUnits="userSpaceOnUse">
<stop stop-color="#28B199"/>
<stop offset="1" stop-color="#6AC8A6"/>
</linearGradient>
<clipPath id="clip0_33_364">
<rect width="64.8389" height="49" fill="white" transform="translate(0 2)"/>
</clipPath>
</defs>
</svg>
