<svg width="1627" height="688" viewBox="0 0 1627 688" fill="none" xmlns="http://www.w3.org/2000/svg">
<path d="M916 220.907L920.765 222.785L933.287 204.527L928.522 202.65L916 220.907Z" fill="#263238"/>
<path d="M1410 436.148L1414.76 438.025L1427.29 419.768L1422.52 417.891L1410 436.148Z" fill="#263238"/>
<path d="M568.77 464.5C568.77 472.196 561.452 478.743 552.014 478.743C542.575 478.743 535.257 472.196 535.257 464.5C535.257 456.804 542.575 450.257 552.014 450.257C561.452 450.257 568.77 456.804 568.77 464.5Z" stroke="#78A98B" stroke-width="2.51351"/>
<path d="M619.77 672.5C619.77 680.196 612.452 686.743 603.014 686.743C593.575 686.743 586.257 680.196 586.257 672.5C586.257 664.804 593.575 658.257 603.014 658.257C612.452 658.257 619.77 664.804 619.77 672.5Z" stroke="#78A98B" stroke-width="2.51351"/>
<path d="M1626.3 60.6047C1626.3 64.8768 1622.24 68.5116 1617 68.5116C1611.76 68.5116 1607.7 64.8768 1607.7 60.6047C1607.7 56.3325 1611.76 52.6977 1617 52.6977C1622.24 52.6977 1626.3 56.3325 1626.3 60.6047Z" stroke="#78A98B" stroke-width="1.39535"/>
<path d="M44.3023 145.605C44.3023 149.877 40.2396 153.512 35 153.512C29.7604 153.512 25.6977 149.877 25.6977 145.605C25.6977 141.332 29.7604 137.698 35 137.698C40.2396 137.698 44.3023 141.332 44.3023 145.605Z" stroke="#78A98B" stroke-width="1.39535"/>
<path d="M1310.48 504.453C1310.48 507.658 1307.43 510.384 1303.5 510.384C1299.57 510.384 1296.52 507.658 1296.52 504.453C1296.52 501.249 1299.57 498.523 1303.5 498.523C1307.43 498.523 1310.48 501.249 1310.48 504.453Z" stroke="#78A98B" stroke-width="1.04651"/>
<path d="M1036.48 650.453C1036.48 653.658 1033.43 656.384 1029.5 656.384C1025.57 656.384 1022.52 653.658 1022.52 650.453C1022.52 647.249 1025.57 644.523 1029.5 644.523C1033.43 644.523 1036.48 647.249 1036.48 650.453Z" stroke="#78A98B" stroke-width="1.04651"/>
<path d="M1616.16 322C1616.16 328.454 1610.02 333.946 1602.11 333.946C1594.19 333.946 1588.05 328.454 1588.05 322C1588.05 315.546 1594.19 310.054 1602.11 310.054C1610.02 310.054 1616.16 315.546 1616.16 322Z" stroke="#78A98B" stroke-width="2.10811"/>
<path d="M985.432 107C985.432 111.965 980.711 116.189 974.622 116.189C968.532 116.189 963.811 111.965 963.811 107C963.811 102.035 968.532 97.8108 974.622 97.8108C980.711 97.8108 985.432 102.035 985.432 107Z" stroke="#78A98B" stroke-width="1.62162"/>
<path d="M74.5 11C74.5 16.1265 69.9245 20.5 64 20.5C58.0755 20.5 53.5 16.1265 53.5 11C53.5 5.87348 58.0755 1.5 64 1.5C69.9245 1.5 74.5 5.87348 74.5 11Z" stroke="#78A98B" stroke-width="3"/>
<path d="M145.5 283C145.5 288.127 140.925 292.5 135 292.5C129.075 292.5 124.5 288.127 124.5 283C124.5 277.873 129.075 273.5 135 273.5C140.925 273.5 145.5 277.873 145.5 283Z" stroke="#78A98B" stroke-width="3"/>
<path d="M783.236 421.753L781.36 401.575L799.772 410.04L783.236 421.753Z" stroke="#955EBE" stroke-width="1.3"/>
<path d="M317.028 671.837L330.453 656.657L336.887 675.874L317.028 671.837Z" stroke="#955EBE" stroke-width="1.3"/>
<path d="M32.5219 571.651L27.9128 522.07L73.1555 542.869L32.5219 571.651Z" stroke="#955EBE" stroke-width="3.19432"/>
<path d="M798.522 648.651L793.913 599.07L839.156 619.869L798.522 648.651Z" stroke="#955EBE" stroke-width="3.19432"/>
<path d="M749.856 55.5721L761.599 41.0509L768.303 58.4804L749.856 55.5721Z" stroke="#955EBE" stroke-width="1.19798"/>
<path d="M1011.64 344.57L1023.38 330.049L1030.08 347.479L1011.64 344.57Z" stroke="#955EBE" stroke-width="1.19798"/>
<path d="M1242.13 528.181L1244.7 558.835L1216.87 545.729L1242.13 528.181Z" stroke="#955EBE" stroke-width="1.97329"/>
</svg>
