<svg width="50" height="50" viewBox="0 0 50 50" fill="none" xmlns="http://www.w3.org/2000/svg">
<rect width="50" height="50" rx="5" fill="#19102C"/>
<path d="M39 29.375C39 29.375 34.975 39 25 39C15.025 39 11 29.375 11 29.375C11 29.375 18.175 31.125 24.825 31.125C31.475 31.125 39 29.375 39 29.375Z" fill="#C9B9EA"/>
<path d="M41.275 18.875C33.925 16.6 28.15 11 25 11C21.85 11 16.075 16.6 8.72498 18.875C7.49998 19.225 6.97498 20.625 7.67498 21.675C9.24998 23.775 11 23.95 11 26.4C11 26.4 18 28.15 25 28.15C32 28.15 39 26.4 39 26.4C39 23.95 40.75 23.775 42.15 21.5C42.85 20.625 42.325 19.225 41.275 18.875ZM25 25C23.075 25 21.5 21.675 21.5 19.75C21.5 19.75 23.075 18 25 18C26.925 18 28.5 19.75 28.5 19.75C28.5 21.675 26.925 25 25 25Z" fill="#C9B9EA"/>
</svg>
